# xmcd CD database file
#
# Track frame offsets:
#	150
#	8175
#	30092
#	55182
#	112770
#	128687
#	155110
#	195090
#	207725
#	252508
#	285263
#
# Disc length: 4245 seconds
#
# Revision: 0
# Processed by: cddbd v1.4PL0 Copyright (c) Steve Scherf et al.
# Submitted via: CDex 1.51
#
DISCID=8810930b
DTITLE=Miles Davis - Live Around The World
DYEAR=1900
DGENRE=Jazz
TTITLE0=In A Silent Way
TTITLE1=Intruder
TTITLE2=New Blues
TTITLE3=Human Nature
TTITLE4=Mr. Pastorius
TTITLE5=Amandla
TTITLE6=Wrinkle
TTITLE7=Tutu
TTITLE8=Full Nelson
TTITLE9=Time After Time
TTITLE10=Hannibal
EXTD=
EXTT0=
EXTT1=
EXTT2=
EXTT3=
EXTT4=
EXTT5=
EXTT6=
EXTT7=
EXTT8=
EXTT9=
EXTT10=
PLAYORDER=
